<svg xmlns="http://www.w3.org/2000/svg" width="948" height="614" viewBox="0 0 948.0 614.0">
<style>text{font-family:"Cascadia Mono","DejaVu Sans Mono",Menlo,Consolas,"Liberation Mono",monospace;font-size:14.0px;white-space:pre}.b{font-weight:bold}.i{font-style:italic}.u{text-decoration:underline}.s{text-decoration:line-through}</style>
<rect width="100%" height="100%" rx="8" fill="#242424"/>
<circle cx="20.0" cy="23.0" r="6" fill="#ff5f57"/>
<circle cx="40.0" cy="23.0" r="6" fill="#febc2e"/>
<circle cx="60.0" cy="23.0" r="6" fill="#28c840"/>
<text x="474.0" y="27.0" text-anchor="middle" fill="#aaaaaa">pytermwm - command palette</text>
<rect x="12.0" y="42.0" width="924.0" height="560.0" fill="#0c0c0c"/>
<rect x="16.20" y="50.75" width="4.50" height="9.05" fill="#88c0d0"/>
<rect x="20.40" y="50.75" width="8.70" height="9.05" fill="#88bfcf"/>
<rect x="33.00" y="42.00" width="4.50" height="17.80" fill="#88c0d0"/>
<text x="45.60" y="55.65" fill="#eceff4" class="b" textLength="58.80" lengthAdjust="spacingAndGlyphs">● shell</text>
<rect x="112.80" y="42.00" width="4.50" height="17.80" fill="#88c0d0"/>
<rect x="121.20" y="50.75" width="8.70" height="9.05" fill="#92b3c7"/>
<rect x="129.60" y="50.75" width="8.70" height="9.05" fill="#93b3c6"/>
<rect x="138.00" y="50.75" width="8.70" height="9.05" fill="#94b2c6"/>
<rect x="146.40" y="50.75" width="8.70" height="9.05" fill="#95b1c5"/>
<rect x="154.80" y="50.75" width="8.70" height="9.05" fill="#95b0c4"/>
<rect x="163.20" y="50.75" width="8.70" height="9.05" fill="#96afc4"/>
<rect x="171.60" y="50.75" width="8.70" height="9.05" fill="#97aec3"/>
<rect x="180.00" y="50.75" width="8.70" height="9.05" fill="#98adc3"/>
<rect x="188.40" y="50.75" width="8.70" height="9.05" fill="#99acc2"/>
<rect x="196.80" y="50.75" width="8.70" height="9.05" fill="#99abc1"/>
<rect x="205.20" y="50.75" width="8.70" height="9.05" fill="#9aaac1"/>
<rect x="213.60" y="50.75" width="8.70" height="9.05" fill="#9ba9c0"/>
<rect x="222.00" y="50.75" width="8.70" height="9.05" fill="#9ca8bf"/>
<rect x="230.40" y="50.75" width="8.70" height="9.05" fill="#9da7bf"/>
<rect x="238.80" y="50.75" width="8.70" height="9.05" fill="#9ea7be"/>
<rect x="247.20" y="50.75" width="8.70" height="9.05" fill="#9ea6bd"/>
<rect x="255.60" y="50.75" width="8.70" height="9.05" fill="#9fa5bd"/>
<rect x="264.00" y="50.75" width="8.70" height="9.05" fill="#a0a4bc"/>
<rect x="272.40" y="50.75" width="8.70" height="9.05" fill="#a1a3bb"/>
<rect x="280.80" y="50.75" width="8.70" height="9.05" fill="#a2a2bb"/>
<rect x="289.20" y="50.75" width="8.70" height="9.05" fill="#a2a1ba"/>
<rect x="297.60" y="50.75" width="8.70" height="9.05" fill="#a3a0b9"/>
<rect x="306.00" y="50.75" width="8.70" height="9.05" fill="#a49fb9"/>
<rect x="314.40" y="50.75" width="8.70" height="9.05" fill="#a59eb8"/>
<rect x="322.80" y="50.75" width="8.70" height="9.05" fill="#a69db8"/>
<rect x="331.20" y="50.75" width="8.70" height="9.05" fill="#a69cb7"/>
<rect x="339.60" y="50.75" width="8.70" height="9.05" fill="#a79bb6"/>
<rect x="348.00" y="50.75" width="8.70" height="9.05" fill="#a89ab6"/>
<rect x="356.40" y="50.75" width="8.70" height="9.05" fill="#a99ab5"/>
<rect x="364.80" y="50.75" width="8.70" height="9.05" fill="#aa99b4"/>
<rect x="373.20" y="50.75" width="8.70" height="9.05" fill="#ab98b4"/>
<rect x="381.60" y="50.75" width="8.70" height="9.05" fill="#ab97b3"/>
<rect x="390.00" y="50.75" width="8.70" height="9.05" fill="#ac96b2"/>
<rect x="398.40" y="50.75" width="8.70" height="9.05" fill="#ad95b2"/>
<rect x="406.80" y="50.75" width="8.70" height="9.05" fill="#ae94b1"/>
<rect x="415.20" y="50.75" width="8.70" height="9.05" fill="#af93b0"/>
<rect x="423.60" y="50.75" width="8.70" height="9.05" fill="#af92b0"/>
<rect x="432.00" y="50.75" width="8.70" height="9.05" fill="#b091af"/>
<rect x="440.40" y="50.75" width="8.70" height="9.05" fill="#b190ae"/>
<rect x="448.80" y="50.75" width="8.70" height="9.05" fill="#b28fae"/>
<rect x="457.20" y="50.75" width="8.70" height="9.05" fill="#b38ead"/>
<rect x="465.60" y="50.75" width="4.50" height="9.05" fill="#b48ead"/>
<rect x="478.20" y="50.75" width="4.50" height="9.05" fill="#3b4252"/>
<rect x="482.40" y="50.75" width="8.70" height="9.05" fill="#3b4252"/>
<rect x="495.00" y="42.00" width="4.50" height="17.80" fill="#3b4252"/>
<text x="507.60" y="55.65" fill="#7b88a1" textLength="33.60" lengthAdjust="spacingAndGlyphs">load</text>
<rect x="549.60" y="42.00" width="4.50" height="17.80" fill="#3b4252"/>
<rect x="558.00" y="50.75" width="8.70" height="9.05" fill="#3b4252"/>
<rect x="566.40" y="50.75" width="8.70" height="9.05" fill="#3b4252"/>
<rect x="574.80" y="50.75" width="8.70" height="9.05" fill="#3b4252"/>
<rect x="583.20" y="50.75" width="8.70" height="9.05" fill="#3b4252"/>
<rect x="591.60" y="50.75" width="8.70" height="9.05" fill="#3b4252"/>
<rect x="600.00" y="50.75" width="8.70" height="9.05" fill="#3b4252"/>
<rect x="608.40" y="50.75" width="8.70" height="9.05" fill="#3b4252"/>
<rect x="616.80" y="50.75" width="8.70" height="9.05" fill="#3b4252"/>
<rect x="625.20" y="50.75" width="8.70" height="9.05" fill="#3b4252"/>
<rect x="633.60" y="50.75" width="8.70" height="9.05" fill="#3b4252"/>
<rect x="642.00" y="50.75" width="8.70" height="9.05" fill="#3b4252"/>
<rect x="650.40" y="50.75" width="8.70" height="9.05" fill="#3b4252"/>
<rect x="658.80" y="50.75" width="8.70" height="9.05" fill="#3b4252"/>
<rect x="667.20" y="50.75" width="8.70" height="9.05" fill="#3b4252"/>
<rect x="675.60" y="50.75" width="8.70" height="9.05" fill="#3b4252"/>
<rect x="684.00" y="50.75" width="8.70" height="9.05" fill="#3b4252"/>
<rect x="692.40" y="50.75" width="8.70" height="9.05" fill="#3b4252"/>
<rect x="700.80" y="50.75" width="8.70" height="9.05" fill="#3b4252"/>
<rect x="709.20" y="50.75" width="8.70" height="9.05" fill="#3b4252"/>
<rect x="717.60" y="50.75" width="8.70" height="9.05" fill="#3b4252"/>
<rect x="726.00" y="50.75" width="8.70" height="9.05" fill="#3b4252"/>
<rect x="734.40" y="50.75" width="8.70" height="9.05" fill="#3b4252"/>
<rect x="742.80" y="50.75" width="8.70" height="9.05" fill="#3b4252"/>
<rect x="751.20" y="50.75" width="8.70" height="9.05" fill="#3b4252"/>
<rect x="759.60" y="50.75" width="8.70" height="9.05" fill="#3b4252"/>
<rect x="768.00" y="50.75" width="8.70" height="9.05" fill="#3b4252"/>
<rect x="776.40" y="50.75" width="8.70" height="9.05" fill="#3b4252"/>
<rect x="784.80" y="50.75" width="8.70" height="9.05" fill="#3b4252"/>
<rect x="793.20" y="50.75" width="8.70" height="9.05" fill="#3b4252"/>
<rect x="801.60" y="50.75" width="8.70" height="9.05" fill="#3b4252"/>
<rect x="810.00" y="50.75" width="8.70" height="9.05" fill="#3b4252"/>
<rect x="818.40" y="50.75" width="8.70" height="9.05" fill="#3b4252"/>
<rect x="826.80" y="50.75" width="8.70" height="9.05" fill="#3b4252"/>
<rect x="835.20" y="50.75" width="8.70" height="9.05" fill="#3b4252"/>
<rect x="843.60" y="50.75" width="8.70" height="9.05" fill="#3b4252"/>
<rect x="852.00" y="50.75" width="8.70" height="9.05" fill="#3b4252"/>
<rect x="860.40" y="50.75" width="8.70" height="9.05" fill="#3b4252"/>
<rect x="868.80" y="50.75" width="8.70" height="9.05" fill="#3b4252"/>
<rect x="877.20" y="50.75" width="8.70" height="9.05" fill="#3b4252"/>
<rect x="885.60" y="50.75" width="8.70" height="9.05" fill="#3b4252"/>
<rect x="894.00" y="50.75" width="8.70" height="9.05" fill="#3b4252"/>
<rect x="902.40" y="50.75" width="8.70" height="9.05" fill="#3b4252"/>
<rect x="910.80" y="50.75" width="8.70" height="9.05" fill="#3b4252"/>
<rect x="919.20" y="50.75" width="8.70" height="9.05" fill="#3b4252"/>
<rect x="927.60" y="50.75" width="4.50" height="9.05" fill="#3b4252"/>
<rect x="16.20" y="59.50" width="4.50" height="17.80" fill="#88c0d0"/>
<text x="20.40" y="73.15" fill="#cccccc" textLength="75.60" lengthAdjust="spacingAndGlyphs">$ ls docs</text>
<rect x="465.60" y="59.50" width="4.50" height="17.80" fill="#88c0d0"/>
<rect x="478.20" y="59.50" width="4.50" height="17.80" fill="#3b4252"/>
<text x="482.40" y="73.15" fill="#757575" class="b" textLength="369.60" lengthAdjust="spacingAndGlyphs">push  now 69.3%  min 9.5  max 90.8  avg 53.1</text>
<rect x="927.60" y="59.50" width="4.50" height="17.80" fill="#3b4252"/>
<rect x="16.20" y="77.00" width="4.50" height="17.80" fill="#88c0d0"/>
<text x="20.40" y="90.65" fill="#cccccc" textLength="243.60" lengthAdjust="spacingAndGlyphs">api.md                  media</text>
<rect x="465.60" y="77.00" width="4.50" height="17.80" fill="#88c0d0"/>
<rect x="478.20" y="77.00" width="4.50" height="17.80" fill="#3b4252"/>
<text x="482.40" y="90.65" fill="#836227" textLength="445.20" lengthAdjust="spacingAndGlyphs">100┤⠀⠀⠀⠀⠀⠀⠀⠀⠀⠀⠀⠀⠀⠀⠀⠀⠀⠀⠀⠀⠀⠀⠀⠀⠀⠀⠀⠀⠀⠀⠀⠀⠀⠀⠀⠀⠀⠀⠀⠀⠀⠀⠀⠀⠀⠀⠀⠀⠀</text>
<rect x="927.60" y="77.00" width="4.50" height="17.80" fill="#3b4252"/>
<rect x="16.20" y="94.50" width="4.50" height="17.80" fill="#88c0d0"/>
<text x="20.40" y="108.15" fill="#cccccc" textLength="310.80" lengthAdjust="spacingAndGlyphs">automation.md           milestones.md</text>
<rect x="465.60" y="94.50" width="4.50" height="17.80" fill="#88c0d0"/>
<rect x="478.20" y="94.50" width="4.50" height="17.80" fill="#3b4252"/>
<text x="507.60" y="108.15" fill="#836227" textLength="420.00" lengthAdjust="spacingAndGlyphs">│⠀⠀⠀⠀⠀⠀⠀⠀⠀⠀⠀⠀⠀⠀⠀⠀⡴⢦⠀⠀⠀⠀⠀⠀⠀⠀⠀⠀⠀⠀⠀⢠⠶⡄⠀⠀⠀⠀⠀⠀⠀⠀⠀⠀⠀⠀⠀⠀⠀</text>
<rect x="927.60" y="94.50" width="4.50" height="17.80" fill="#3b4252"/>
<rect x="16.20" y="112.00" width="4.50" height="17.80" fill="#88c0d0"/>
<text x="20.40" y="125.65" fill="#cccccc" textLength="285.60" lengthAdjust="spacingAndGlyphs">configuration.md        plugins.md</text>
<rect x="465.60" y="112.00" width="4.50" height="17.80" fill="#88c0d0"/>
<rect x="478.20" y="112.00" width="4.50" height="17.80" fill="#3b4252"/>
<text x="507.60" y="125.65" fill="#836227" textLength="420.00" lengthAdjust="spacingAndGlyphs">│⢀⡶⣄⠀⠀⠀⠀⠀⠀⠀⠀⠀⠀⠀⠀⢠⠇⠈⡇⠀⠀⠀⠀⠀⠀⠀⠀⠀⠀⠀⠀⡞⠀⢧⠀⠀⠀⠀⠀⠀⠀⠀⠀⠀⠀⠀⠀⣠⡄</text>
<rect x="927.60" y="112.00" width="4.50" height="17.80" fill="#3b4252"/>
<rect x="154.80" y="129.50" width="17.10" height="17.80" fill="#2e3440"/>
<rect x="171.60" y="129.50" width="143.10" height="17.80" fill="#88c0d0"/>
<rect x="314.40" y="129.50" width="479.10" height="17.80" fill="#2e3440"/>
<rect x="16.20" y="129.50" width="4.50" height="17.80" fill="#88c0d0"/>
<text x="20.40" y="143.15" fill="#cccccc" textLength="109.20" lengthAdjust="spacingAndGlyphs">evaluation.md</text>
<text x="154.80" y="143.15" fill="#88c0d0" textLength="16.80" lengthAdjust="spacingAndGlyphs">╭─</text>
<text x="180.00" y="143.15" fill="#2e3440" class="b" textLength="126.00" lengthAdjust="spacingAndGlyphs">command palette</text>
<text x="314.40" y="143.15" fill="#88c0d0" textLength="478.80" lengthAdjust="spacingAndGlyphs">────────────────────────────────────────────────────────╮</text>
<text x="793.20" y="143.15" fill="#836227" textLength="134.40" lengthAdjust="spacingAndGlyphs">⢸⡀⠀⠀⠀⠀⠀⠀⠀⠀⡏⠙⢦⡼⠁⠹</text>
<rect x="927.60" y="129.50" width="4.50" height="17.80" fill="#3b4252"/>
<rect x="154.80" y="147.00" width="638.70" height="17.80" fill="#2e3440"/>
<rect x="793.20" y="147.00" width="17.10" height="17.80" fill="#1a1e26"/>
<rect x="16.20" y="147.00" width="4.50" height="17.80" fill="#88c0d0"/>
<text x="20.40" y="160.65" fill="#cccccc" textLength="67.20" lengthAdjust="spacingAndGlyphs">ideas.md</text>
<text x="154.80" y="160.65" fill="#88c0d0" textLength="8.40" lengthAdjust="spacingAndGlyphs">│</text>
<text x="171.60" y="160.65" fill="#eceff4" class="b" textLength="42.00" lengthAdjust="spacingAndGlyphs">› lay</text>
<text x="784.80" y="160.65" fill="#88c0d0" textLength="8.40" lengthAdjust="spacingAndGlyphs">│</text>
<text x="793.20" y="160.65" fill="#8a6a33" textLength="16.80" lengthAdjust="spacingAndGlyphs">⠀⡇</text>
<text x="810.00" y="160.65" fill="#836227" textLength="117.60" lengthAdjust="spacingAndGlyphs">⠀⠀⠀⠀⠀⠀⠀⢸⠁⠀⠀⠀⠀⠀</text>
<rect x="927.60" y="147.00" width="4.50" height="17.80" fill="#3b4252"/>
<rect x="154.80" y="164.50" width="8.70" height="17.80" fill="#2e3440"/>
<rect x="163.20" y="164.50" width="621.90" height="17.80" fill="#ebcb8b"/>
<rect x="784.80" y="164.50" width="8.70" height="17.80" fill="#2e3440"/>
<rect x="793.20" y="164.50" width="17.10" height="17.80" fill="#1a1e26"/>
<rect x="16.20" y="164.50" width="4.50" height="17.80" fill="#88c0d0"/>
<text x="20.40" y="178.15" fill="#cccccc" textLength="134.40" lengthAdjust="spacingAndGlyphs">implementation_p</text>
<text x="154.80" y="178.15" fill="#88c0d0" textLength="8.40" lengthAdjust="spacingAndGlyphs">│</text>
<text x="171.60" y="178.15" fill="#2e3440" class="b" textLength="50.40" lengthAdjust="spacingAndGlyphs">layout</text>
<text x="381.60" y="178.15" fill="#2e3440" textLength="394.80" lengthAdjust="spacingAndGlyphs">Change the layout engine of the current desktop</text>
<text x="784.80" y="178.15" fill="#88c0d0" textLength="8.40" lengthAdjust="spacingAndGlyphs">│</text>
<text x="793.20" y="178.15" fill="#8a6a33" textLength="16.80" lengthAdjust="spacingAndGlyphs">⠀⢳</text>
<text x="810.00" y="178.15" fill="#836227" textLength="117.60" lengthAdjust="spacingAndGlyphs">⠀⠀⠀⠀⠀⠀⠀⡞⠀⠀⠀⠀⠀⠀</text>
<rect x="927.60" y="164.50" width="4.50" height="17.80" fill="#3b4252"/>
<rect x="154.80" y="182.00" width="638.70" height="17.80" fill="#2e3440"/>
<rect x="793.20" y="182.00" width="17.10" height="17.80" fill="#1a1e26"/>
<rect x="16.20" y="182.00" width="4.50" height="17.80" fill="#88c0d0"/>
<text x="20.40" y="195.65" fill="#cccccc" textLength="33.60" lengthAdjust="spacingAndGlyphs">logo</text>
<text x="154.80" y="195.65" fill="#88c0d0" textLength="8.40" lengthAdjust="spacingAndGlyphs">│</text>
<text x="171.60" y="195.65" fill="#eceff4" textLength="84.00" lengthAdjust="spacingAndGlyphs">layout-set</text>
<text x="272.40" y="195.65" fill="#616e88" textLength="504.00" lengthAdjust="spacingAndGlyphs">Set a parameter of the current layout (cols/rows/cells take…</text>
<text x="784.80" y="195.65" fill="#88c0d0" textLength="8.40" lengthAdjust="spacingAndGlyphs">│</text>
<text x="793.20" y="195.65" fill="#8a6a33" textLength="16.80" lengthAdjust="spacingAndGlyphs">⠀⠸</text>
<text x="810.00" y="195.65" fill="#836227" textLength="117.60" lengthAdjust="spacingAndGlyphs">⡄⠀⠀⠀⠀⠀⢀⡇⠀⠀⠀⠀⠀⠀</text>
<rect x="927.60" y="182.00" width="4.50" height="17.80" fill="#3b4252"/>
<rect x="154.80" y="199.50" width="638.70" height="17.80" fill="#2e3440"/>
<rect x="793.20" y="199.50" width="17.10" height="17.80" fill="#1a1e26"/>
<rect x="16.20" y="199.50" width="4.50" height="17.80" fill="#88c0d0"/>
<text x="20.40" y="213.15" fill="#cccccc" textLength="8.40" lengthAdjust="spacingAndGlyphs">$</text>
<text x="154.80" y="213.15" fill="#88c0d0" textLength="8.40" lengthAdjust="spacingAndGlyphs">│</text>
<text x="171.60" y="213.15" fill="#eceff4" textLength="50.40" lengthAdjust="spacingAndGlyphs">replay</text>
<text x="238.80" y="213.15" fill="#616e88" textLength="537.60" lengthAdjust="spacingAndGlyphs">Play an asciicast (.cast) file in a window (keys: Space pause, …</text>
<text x="784.80" y="213.15" fill="#88c0d0" textLength="8.40" lengthAdjust="spacingAndGlyphs">│</text>
<text x="793.20" y="213.15" fill="#8a6a33" textLength="16.80" lengthAdjust="spacingAndGlyphs">⠀⠀</text>
<text x="810.00" y="213.15" fill="#836227" textLength="117.60" lengthAdjust="spacingAndGlyphs">⢧⣀⣀⡀⠀⠀⢸⠀⠀⠀⠀⠀⠀⠀</text>
<rect x="927.60" y="199.50" width="4.50" height="17.80" fill="#3b4252"/>
<rect x="154.80" y="217.00" width="638.70" height="17.80" fill="#2e3440"/>
<rect x="793.20" y="217.00" width="17.10" height="17.80" fill="#1a1e26"/>
<rect x="16.20" y="217.00" width="4.50" height="17.80" fill="#88c0d0"/>
<text x="154.80" y="230.65" fill="#88c0d0" textLength="8.40" lengthAdjust="spacingAndGlyphs">│</text>
<text x="171.60" y="230.65" fill="#eceff4" textLength="100.80" lengthAdjust="spacingAndGlyphs">session-save</text>
<text x="516.00" y="230.65" fill="#616e88" textLength="260.40" lengthAdjust="spacingAndGlyphs">Save the layout/session to disk</text>
<text x="784.80" y="230.65" fill="#88c0d0" textLength="8.40" lengthAdjust="spacingAndGlyphs">│</text>
<text x="793.20" y="230.65" fill="#8a6a33" textLength="16.80" lengthAdjust="spacingAndGlyphs">⠀⠀</text>
<text x="810.00" y="230.65" fill="#836227" textLength="117.60" lengthAdjust="spacingAndGlyphs">⠀⠀⠀⢳⡀⠀⡏⠀⠀⠀⠀⠀⠀⠀</text>
<rect x="927.60" y="217.00" width="4.50" height="17.80" fill="#3b4252"/>
<rect x="154.80" y="234.50" width="638.70" height="17.80" fill="#2e3440"/>
<rect x="793.20" y="234.50" width="17.10" height="17.80" fill="#1a1e26"/>
<rect x="16.20" y="234.50" width="4.50" height="17.80" fill="#88c0d0"/>
<text x="154.80" y="248.15" fill="#88c0d0" textLength="8.40" lengthAdjust="spacingAndGlyphs">│</text>
<text x="171.60" y="248.15" fill="#eceff4" textLength="58.80" lengthAdjust="spacingAndGlyphs">palette</text>
<text x="507.60" y="248.15" fill="#616e88" textLength="268.80" lengthAdjust="spacingAndGlyphs">Open the command palette overlay</text>
<text x="784.80" y="248.15" fill="#88c0d0" textLength="8.40" lengthAdjust="spacingAndGlyphs">│</text>
<text x="793.20" y="248.15" fill="#8a6a33" textLength="16.80" lengthAdjust="spacingAndGlyphs">⠀⠀</text>
<text x="810.00" y="248.15" fill="#836227" textLength="117.60" lengthAdjust="spacingAndGlyphs">⠀⠀⠀⠀⢧⣰⠃⠀⠀⠀⠀⠀⠀⠀</text>
<rect x="927.60" y="234.50" width="4.50" height="17.80" fill="#3b4252"/>
<rect x="154.80" y="252.00" width="638.70" height="17.80" fill="#2e3440"/>
<rect x="793.20" y="252.00" width="17.10" height="17.80" fill="#1a1e26"/>
<rect x="16.20" y="252.00" width="4.50" height="17.80" fill="#88c0d0"/>
<text x="154.80" y="265.65" fill="#88c0d0" textLength="8.40" lengthAdjust="spacingAndGlyphs">│</text>
<text x="171.60" y="265.65" fill="#eceff4" textLength="58.80" lengthAdjust="spacingAndGlyphs">balance</text>
<text x="474.00" y="265.65" fill="#616e88" textLength="302.40" lengthAdjust="spacingAndGlyphs">Equalize sizes in the current layout</text>
<text x="784.80" y="265.65" fill="#88c0d0" textLength="8.40" lengthAdjust="spacingAndGlyphs">│</text>
<text x="793.20" y="265.65" fill="#8a6a33" textLength="16.80" lengthAdjust="spacingAndGlyphs">⠀⠀</text>
<text x="810.00" y="265.65" fill="#836227" textLength="117.60" lengthAdjust="spacingAndGlyphs">⠀⠀⠀⠀⠈⠁⠀⠀⠀⠀⠀⠀⠀⠀</text>
<rect x="927.60" y="252.00" width="4.50" height="17.80" fill="#3b4252"/>
<rect x="154.80" y="269.50" width="638.70" height="17.80" fill="#2e3440"/>
<rect x="793.20" y="269.50" width="17.10" height="17.80" fill="#1a1e26"/>
<rect x="16.20" y="269.50" width="4.50" height="17.80" fill="#88c0d0"/>
<text x="154.80" y="283.15" fill="#88c0d0" textLength="8.40" lengthAdjust="spacingAndGlyphs">│</text>
<text x="171.60" y="283.15" fill="#eceff4" textLength="50.40" lengthAdjust="spacingAndGlyphs">rotate</text>
<text x="238.80" y="283.15" fill="#616e88" textLength="537.60" lengthAdjust="spacingAndGlyphs">Flip the split direction around the focused window (tile layout)</text>
<text x="784.80" y="283.15" fill="#88c0d0" textLength="8.40" lengthAdjust="spacingAndGlyphs">│</text>
<text x="793.20" y="283.15" fill="#8a6a33" textLength="16.80" lengthAdjust="spacingAndGlyphs">⠀⠀</text>
<text x="810.00" y="283.15" fill="#836227" textLength="117.60" lengthAdjust="spacingAndGlyphs">⠀⠀⠀⠀⠀⠀⠀⠀⠀⠀⠀⠀⠀⠀</text>
<rect x="927.60" y="269.50" width="4.50" height="17.80" fill="#3b4252"/>
<rect x="154.80" y="287.00" width="638.70" height="17.80" fill="#2e3440"/>
<rect x="793.20" y="287.00" width="17.10" height="17.80" fill="#1a1e26"/>
<rect x="16.20" y="287.00" width="4.50" height="17.80" fill="#88c0d0"/>
<text x="154.80" y="300.65" fill="#88c0d0" textLength="8.40" lengthAdjust="spacingAndGlyphs">│</text>
<text x="171.60" y="300.65" fill="#eceff4" textLength="42.00" lengthAdjust="spacingAndGlyphs">route</text>
<text x="230.40" y="300.65" fill="#616e88" textLength="546.00" lengthAdjust="spacingAndGlyphs">Re-route a window's stdout/stderr to another window's display or…</text>
<text x="784.80" y="300.65" fill="#88c0d0" textLength="8.40" lengthAdjust="spacingAndGlyphs">│</text>
<rect x="793.20" y="287.00" width="8.70" height="9.05" fill="#2c313e"/>
<rect x="801.60" y="287.00" width="8.70" height="9.05" fill="#2c313e"/>
<rect x="810.00" y="287.00" width="8.70" height="9.05" fill="#3b4252"/>
<rect x="818.40" y="287.00" width="8.70" height="9.05" fill="#3b4252"/>
<rect x="826.80" y="287.00" width="8.70" height="9.05" fill="#3b4252"/>
<rect x="835.20" y="287.00" width="8.70" height="9.05" fill="#3b4252"/>
<rect x="843.60" y="287.00" width="8.70" height="9.05" fill="#3b4252"/>
<rect x="852.00" y="287.00" width="8.70" height="9.05" fill="#3b4252"/>
<rect x="860.40" y="287.00" width="8.70" height="9.05" fill="#3b4252"/>
<rect x="868.80" y="287.00" width="8.70" height="9.05" fill="#3b4252"/>
<rect x="877.20" y="287.00" width="8.70" height="9.05" fill="#3b4252"/>
<rect x="885.60" y="287.00" width="8.70" height="9.05" fill="#3b4252"/>
<rect x="894.00" y="287.00" width="8.70" height="9.05" fill="#3b4252"/>
<rect x="902.40" y="287.00" width="8.70" height="9.05" fill="#3b4252"/>
<rect x="910.80" y="287.00" width="8.70" height="9.05" fill="#3b4252"/>
<rect x="919.20" y="287.00" width="8.70" height="9.05" fill="#3b4252"/>
<rect x="927.60" y="287.00" width="4.50" height="9.05" fill="#3b4252"/>
<rect x="154.80" y="304.50" width="638.70" height="17.80" fill="#2e3440"/>
<rect x="793.20" y="304.50" width="17.10" height="17.80" fill="#1a1e26"/>
<rect x="16.20" y="304.50" width="4.50" height="17.80" fill="#88c0d0"/>
<text x="154.80" y="318.15" fill="#88c0d0" textLength="8.40" lengthAdjust="spacingAndGlyphs">│</text>
<text x="171.60" y="318.15" fill="#eceff4" textLength="109.20" lengthAdjust="spacingAndGlyphs">clear-history</text>
<text x="516.00" y="318.15" fill="#616e88" textLength="260.40" lengthAdjust="spacingAndGlyphs">Drop the scrollback of a window</text>
<text x="784.80" y="318.15" fill="#88c0d0" textLength="8.40" lengthAdjust="spacingAndGlyphs">│</text>
<rect x="793.20" y="313.25" width="8.70" height="9.05" fill="#2c313e"/>
<rect x="801.60" y="313.25" width="8.70" height="9.05" fill="#2c313e"/>
<rect x="810.00" y="313.25" width="8.70" height="9.05" fill="#3b4252"/>
<rect x="818.40" y="313.25" width="8.70" height="9.05" fill="#3b4252"/>
<rect x="826.80" y="313.25" width="8.70" height="9.05" fill="#3b4252"/>
<rect x="835.20" y="313.25" width="8.70" height="9.05" fill="#3b4252"/>
<rect x="843.60" y="313.25" width="8.70" height="9.05" fill="#3b4252"/>
<rect x="852.00" y="313.25" width="8.70" height="9.05" fill="#3b4252"/>
<rect x="860.40" y="313.25" width="8.70" height="9.05" fill="#3b4252"/>
<rect x="868.80" y="313.25" width="8.70" height="9.05" fill="#3b4252"/>
<rect x="877.20" y="313.25" width="8.70" height="9.05" fill="#3b4252"/>
<rect x="885.60" y="313.25" width="8.70" height="9.05" fill="#3b4252"/>
<rect x="894.00" y="313.25" width="8.70" height="9.05" fill="#3b4252"/>
<rect x="902.40" y="313.25" width="8.70" height="9.05" fill="#3b4252"/>
<rect x="910.80" y="313.25" width="8.70" height="9.05" fill="#3b4252"/>
<rect x="919.20" y="313.25" width="8.70" height="9.05" fill="#3b4252"/>
<rect x="927.60" y="313.25" width="4.50" height="9.05" fill="#3b4252"/>
<rect x="154.80" y="322.00" width="638.70" height="17.80" fill="#2e3440"/>
<rect x="793.20" y="322.00" width="17.10" height="17.80" fill="#1a1e26"/>
<rect x="16.20" y="322.00" width="4.50" height="17.80" fill="#88c0d0"/>
<text x="154.80" y="335.65" fill="#88c0d0" textLength="8.40" lengthAdjust="spacingAndGlyphs">│</text>
<text x="171.60" y="335.65" fill="#eceff4" textLength="50.40" lengthAdjust="spacingAndGlyphs">reload</text>
<text x="499.20" y="335.65" fill="#616e88" textLength="277.20" lengthAdjust="spacingAndGlyphs">Reload the YAML configuration now</text>
<text x="784.80" y="335.65" fill="#88c0d0" textLength="8.40" lengthAdjust="spacingAndGlyphs">│</text>
<rect x="927.60" y="322.00" width="4.50" height="17.80" fill="#3b4252"/>
<rect x="154.80" y="339.50" width="638.70" height="17.80" fill="#2e3440"/>
<rect x="793.20" y="339.50" width="17.10" height="17.80" fill="#1a1e26"/>
<rect x="16.20" y="339.50" width="4.50" height="17.80" fill="#88c0d0"/>
<text x="154.80" y="353.15" fill="#88c0d0" textLength="8.40" lengthAdjust="spacingAndGlyphs">│</text>
<text x="171.60" y="353.15" fill="#eceff4" textLength="75.60" lengthAdjust="spacingAndGlyphs">copy-mode</text>
<text x="264.00" y="353.15" fill="#616e88" textLength="512.40" lengthAdjust="spacingAndGlyphs">Keyboard selection: move with hjkl/arrows, v selects, y copi…</text>
<text x="784.80" y="353.15" fill="#88c0d0" textLength="8.40" lengthAdjust="spacingAndGlyphs">│</text>
<rect x="927.60" y="339.50" width="4.50" height="17.80" fill="#3b4252"/>
<rect x="154.80" y="357.00" width="638.70" height="17.80" fill="#2e3440"/>
<rect x="793.20" y="357.00" width="17.10" height="17.80" fill="#1a1e26"/>
<rect x="16.20" y="357.00" width="4.50" height="17.80" fill="#88c0d0"/>
<text x="154.80" y="370.65" fill="#88c0d0" textLength="8.40" lengthAdjust="spacingAndGlyphs">│</text>
<text x="171.60" y="370.65" fill="#eceff4" textLength="16.80" lengthAdjust="spacingAndGlyphs">up</text>
<text x="205.20" y="370.65" fill="#616e88" textLength="571.20" lengthAdjust="spacingAndGlyphs">Build the desktops and windows described by a project file (.pyterm…</text>
<text x="784.80" y="370.65" fill="#88c0d0" textLength="8.40" lengthAdjust="spacingAndGlyphs">│</text>
<rect x="927.60" y="357.00" width="4.50" height="17.80" fill="#3b4252"/>
<rect x="154.80" y="374.50" width="638.70" height="17.80" fill="#2e3440"/>
<rect x="793.20" y="374.50" width="17.10" height="17.80" fill="#1a1e26"/>
<rect x="16.20" y="374.50" width="4.50" height="17.80" fill="#88c0d0"/>
<text x="154.80" y="388.15" fill="#88c0d0" textLength="638.40" lengthAdjust="spacingAndGlyphs">╰──────────────────────────────────────────────────────────────────────────╯</text>
<rect x="927.60" y="374.50" width="4.50" height="17.80" fill="#3b4252"/>
<rect x="171.60" y="392.00" width="638.70" height="17.80" fill="#1a1e26"/>
<rect x="16.20" y="392.00" width="4.50" height="17.80" fill="#88c0d0"/>
<rect x="465.60" y="392.00" width="4.50" height="17.80" fill="#567783"/>
<rect x="478.20" y="392.00" width="4.50" height="17.80" fill="#2c313e"/>
<text x="499.20" y="405.65" fill="#7b7d81" textLength="201.60" lengthAdjust="spacingAndGlyphs">M-Space      next layout</text>
<rect x="927.60" y="392.00" width="4.50" height="17.80" fill="#3b4252"/>
<rect x="16.20" y="409.50" width="4.50" height="17.80" fill="#88c0d0"/>
<rect x="465.60" y="409.50" width="4.50" height="17.80" fill="#88c0d0"/>
<rect x="478.20" y="409.50" width="4.50" height="17.80" fill="#3b4252"/>
<text x="499.20" y="423.15" fill="#757575" textLength="235.20" lengthAdjust="spacingAndGlyphs">M-p          command palette</text>
<rect x="927.60" y="409.50" width="4.50" height="17.80" fill="#3b4252"/>
<rect x="16.20" y="427.00" width="4.50" height="17.80" fill="#88c0d0"/>
<rect x="465.60" y="427.00" width="4.50" height="17.80" fill="#88c0d0"/>
<rect x="478.20" y="427.00" width="4.50" height="17.80" fill="#3b4252"/>
<text x="499.20" y="440.65" fill="#757575" textLength="319.20" lengthAdjust="spacingAndGlyphs">C-b :        prompt in the status line</text>
<rect x="927.60" y="427.00" width="4.50" height="17.80" fill="#3b4252"/>
<rect x="16.20" y="444.50" width="4.50" height="17.80" fill="#88c0d0"/>
<rect x="465.60" y="444.50" width="4.50" height="17.80" fill="#88c0d0"/>
<rect x="478.20" y="444.50" width="4.50" height="17.80" fill="#3b4252"/>
<text x="499.20" y="458.15" fill="#757575" textLength="394.80" lengthAdjust="spacingAndGlyphs">C-b d        detach (the session keeps running)</text>
<rect x="927.60" y="444.50" width="4.50" height="17.80" fill="#3b4252"/>
<rect x="16.20" y="462.00" width="4.50" height="17.80" fill="#88c0d0"/>
<rect x="465.60" y="462.00" width="4.50" height="17.80" fill="#88c0d0"/>
<rect x="478.20" y="462.00" width="4.50" height="17.80" fill="#3b4252"/>
<rect x="927.60" y="462.00" width="4.50" height="17.80" fill="#3b4252"/>
<rect x="16.20" y="479.50" width="4.50" height="17.80" fill="#88c0d0"/>
<rect x="465.60" y="479.50" width="4.50" height="17.80" fill="#88c0d0"/>
<rect x="478.20" y="479.50" width="4.50" height="17.80" fill="#3b4252"/>
<text x="482.40" y="493.15" fill="#757575" textLength="344.40" lengthAdjust="spacingAndGlyphs">Drive it from the keyboard, the CLI, HTTP</text>
<rect x="927.60" y="479.50" width="4.50" height="17.80" fill="#3b4252"/>
<rect x="16.20" y="497.00" width="4.50" height="17.80" fill="#88c0d0"/>
<rect x="465.60" y="497.00" width="4.50" height="17.80" fill="#88c0d0"/>
<rect x="478.20" y="497.00" width="4.50" height="17.80" fill="#3b4252"/>
<text x="482.40" y="510.65" fill="#757575" textLength="310.80" lengthAdjust="spacingAndGlyphs">or MCP: one command registry for all.</text>
<rect x="927.60" y="497.00" width="4.50" height="17.80" fill="#3b4252"/>
<rect x="16.20" y="514.50" width="4.50" height="17.80" fill="#88c0d0"/>
<rect x="465.60" y="514.50" width="4.50" height="17.80" fill="#88c0d0"/>
<rect x="478.20" y="514.50" width="4.50" height="17.80" fill="#3b4252"/>
<rect x="927.60" y="514.50" width="4.50" height="17.80" fill="#3b4252"/>
<rect x="16.20" y="532.00" width="4.50" height="17.80" fill="#88c0d0"/>
<rect x="465.60" y="532.00" width="4.50" height="17.80" fill="#88c0d0"/>
<rect x="478.20" y="532.00" width="4.50" height="17.80" fill="#3b4252"/>
<rect x="927.60" y="532.00" width="4.50" height="17.80" fill="#3b4252"/>
<rect x="16.20" y="549.50" width="4.50" height="17.80" fill="#88c0d0"/>
<rect x="465.60" y="549.50" width="4.50" height="17.80" fill="#88c0d0"/>
<rect x="478.20" y="549.50" width="4.50" height="17.80" fill="#3b4252"/>
<rect x="927.60" y="549.50" width="4.50" height="17.80" fill="#3b4252"/>
<rect x="16.20" y="567.00" width="4.50" height="9.05" fill="#88c0d0"/>
<rect x="20.40" y="567.00" width="8.70" height="9.05" fill="#88c0d0"/>
<rect x="28.80" y="567.00" width="8.70" height="9.05" fill="#88c0d0"/>
<rect x="37.20" y="567.00" width="8.70" height="9.05" fill="#88c0d0"/>
<rect x="45.60" y="567.00" width="8.70" height="9.05" fill="#88c0d0"/>
<rect x="54.00" y="567.00" width="8.70" height="9.05" fill="#88c0d0"/>
<rect x="62.40" y="567.00" width="8.70" height="9.05" fill="#88c0d0"/>
<rect x="70.80" y="567.00" width="8.70" height="9.05" fill="#88c0d0"/>
<rect x="79.20" y="567.00" width="8.70" height="9.05" fill="#88c0d0"/>
<rect x="87.60" y="567.00" width="8.70" height="9.05" fill="#88c0d0"/>
<rect x="96.00" y="567.00" width="8.70" height="9.05" fill="#88c0d0"/>
<rect x="104.40" y="567.00" width="8.70" height="9.05" fill="#88c0d0"/>
<rect x="112.80" y="567.00" width="8.70" height="9.05" fill="#88c0d0"/>
<rect x="121.20" y="567.00" width="8.70" height="9.05" fill="#88c0d0"/>
<rect x="129.60" y="567.00" width="8.70" height="9.05" fill="#88c0d0"/>
<rect x="138.00" y="567.00" width="8.70" height="9.05" fill="#88c0d0"/>
<rect x="146.40" y="567.00" width="8.70" height="9.05" fill="#88c0d0"/>
<rect x="154.80" y="567.00" width="8.70" height="9.05" fill="#88c0d0"/>
<rect x="163.20" y="567.00" width="8.70" height="9.05" fill="#88c0d0"/>
<rect x="171.60" y="567.00" width="8.70" height="9.05" fill="#88c0d0"/>
<rect x="180.00" y="567.00" width="8.70" height="9.05" fill="#88c0d0"/>
<rect x="188.40" y="567.00" width="8.70" height="9.05" fill="#88c0d0"/>
<rect x="196.80" y="567.00" width="8.70" height="9.05" fill="#88c0d0"/>
<rect x="205.20" y="567.00" width="8.70" height="9.05" fill="#88c0d0"/>
<rect x="213.60" y="567.00" width="8.70" height="9.05" fill="#88c0d0"/>
<rect x="222.00" y="567.00" width="8.70" height="9.05" fill="#88c0d0"/>
<rect x="230.40" y="567.00" width="8.70" height="9.05" fill="#88c0d0"/>
<rect x="238.80" y="567.00" width="8.70" height="9.05" fill="#88c0d0"/>
<rect x="247.20" y="567.00" width="8.70" height="9.05" fill="#88c0d0"/>
<rect x="255.60" y="567.00" width="8.70" height="9.05" fill="#88c0d0"/>
<rect x="264.00" y="567.00" width="8.70" height="9.05" fill="#88c0d0"/>
<rect x="272.40" y="567.00" width="8.70" height="9.05" fill="#88c0d0"/>
<rect x="280.80" y="567.00" width="8.70" height="9.05" fill="#88c0d0"/>
<rect x="289.20" y="567.00" width="8.70" height="9.05" fill="#88c0d0"/>
<rect x="297.60" y="567.00" width="8.70" height="9.05" fill="#88c0d0"/>
<rect x="306.00" y="567.00" width="8.70" height="9.05" fill="#88c0d0"/>
<rect x="314.40" y="567.00" width="8.70" height="9.05" fill="#88c0d0"/>
<rect x="322.80" y="567.00" width="8.70" height="9.05" fill="#88c0d0"/>
<rect x="331.20" y="567.00" width="8.70" height="9.05" fill="#88c0d0"/>
<rect x="339.60" y="567.00" width="8.70" height="9.05" fill="#88c0d0"/>
<rect x="348.00" y="567.00" width="8.70" height="9.05" fill="#88c0d0"/>
<rect x="356.40" y="567.00" width="8.70" height="9.05" fill="#88c0d0"/>
<rect x="364.80" y="567.00" width="8.70" height="9.05" fill="#88c0d0"/>
<rect x="373.20" y="567.00" width="8.70" height="9.05" fill="#88c0d0"/>
<rect x="381.60" y="567.00" width="8.70" height="9.05" fill="#88c0d0"/>
<rect x="390.00" y="567.00" width="8.70" height="9.05" fill="#88c0d0"/>
<rect x="398.40" y="567.00" width="8.70" height="9.05" fill="#88c0d0"/>
<rect x="406.80" y="567.00" width="8.70" height="9.05" fill="#88c0d0"/>
<rect x="415.20" y="567.00" width="8.70" height="9.05" fill="#88c0d0"/>
<rect x="423.60" y="567.00" width="8.70" height="9.05" fill="#88c0d0"/>
<rect x="432.00" y="567.00" width="8.70" height="9.05" fill="#88c0d0"/>
<rect x="440.40" y="567.00" width="8.70" height="9.05" fill="#88c0d0"/>
<rect x="448.80" y="567.00" width="8.70" height="9.05" fill="#88c0d0"/>
<rect x="457.20" y="567.00" width="8.70" height="9.05" fill="#88c0d0"/>
<rect x="465.60" y="567.00" width="4.50" height="9.05" fill="#88c0d0"/>
<rect x="478.20" y="567.00" width="4.50" height="9.05" fill="#3b4252"/>
<rect x="482.40" y="567.00" width="8.70" height="9.05" fill="#3b4252"/>
<rect x="490.80" y="567.00" width="8.70" height="9.05" fill="#3b4252"/>
<rect x="499.20" y="567.00" width="8.70" height="9.05" fill="#3b4252"/>
<rect x="507.60" y="567.00" width="8.70" height="9.05" fill="#3b4252"/>
<rect x="516.00" y="567.00" width="8.70" height="9.05" fill="#3b4252"/>
<rect x="524.40" y="567.00" width="8.70" height="9.05" fill="#3b4252"/>
<rect x="532.80" y="567.00" width="8.70" height="9.05" fill="#3b4252"/>
<rect x="541.20" y="567.00" width="8.70" height="9.05" fill="#3b4252"/>
<rect x="549.60" y="567.00" width="8.70" height="9.05" fill="#3b4252"/>
<rect x="558.00" y="567.00" width="8.70" height="9.05" fill="#3b4252"/>
<rect x="566.40" y="567.00" width="8.70" height="9.05" fill="#3b4252"/>
<rect x="574.80" y="567.00" width="8.70" height="9.05" fill="#3b4252"/>
<rect x="583.20" y="567.00" width="8.70" height="9.05" fill="#3b4252"/>
<rect x="591.60" y="567.00" width="8.70" height="9.05" fill="#3b4252"/>
<rect x="600.00" y="567.00" width="8.70" height="9.05" fill="#3b4252"/>
<rect x="608.40" y="567.00" width="8.70" height="9.05" fill="#3b4252"/>
<rect x="616.80" y="567.00" width="8.70" height="9.05" fill="#3b4252"/>
<rect x="625.20" y="567.00" width="8.70" height="9.05" fill="#3b4252"/>
<rect x="633.60" y="567.00" width="8.70" height="9.05" fill="#3b4252"/>
<rect x="642.00" y="567.00" width="8.70" height="9.05" fill="#3b4252"/>
<rect x="650.40" y="567.00" width="8.70" height="9.05" fill="#3b4252"/>
<rect x="658.80" y="567.00" width="8.70" height="9.05" fill="#3b4252"/>
<rect x="667.20" y="567.00" width="8.70" height="9.05" fill="#3b4252"/>
<rect x="675.60" y="567.00" width="8.70" height="9.05" fill="#3b4252"/>
<rect x="684.00" y="567.00" width="8.70" height="9.05" fill="#3b4252"/>
<rect x="692.40" y="567.00" width="8.70" height="9.05" fill="#3b4252"/>
<rect x="700.80" y="567.00" width="8.70" height="9.05" fill="#3b4252"/>
<rect x="709.20" y="567.00" width="8.70" height="9.05" fill="#3b4252"/>
<rect x="717.60" y="567.00" width="8.70" height="9.05" fill="#3b4252"/>
<rect x="726.00" y="567.00" width="8.70" height="9.05" fill="#3b4252"/>
<rect x="734.40" y="567.00" width="8.70" height="9.05" fill="#3b4252"/>
<rect x="742.80" y="567.00" width="8.70" height="9.05" fill="#3b4252"/>
<rect x="751.20" y="567.00" width="8.70" height="9.05" fill="#3b4252"/>
<rect x="759.60" y="567.00" width="8.70" height="9.05" fill="#3b4252"/>
<rect x="768.00" y="567.00" width="8.70" height="9.05" fill="#3b4252"/>
<rect x="776.40" y="567.00" width="8.70" height="9.05" fill="#3b4252"/>
<rect x="784.80" y="567.00" width="8.70" height="9.05" fill="#3b4252"/>
<rect x="793.20" y="567.00" width="8.70" height="9.05" fill="#3b4252"/>
<rect x="801.60" y="567.00" width="8.70" height="9.05" fill="#3b4252"/>
<rect x="810.00" y="567.00" width="8.70" height="9.05" fill="#3b4252"/>
<rect x="818.40" y="567.00" width="8.70" height="9.05" fill="#3b4252"/>
<rect x="826.80" y="567.00" width="8.70" height="9.05" fill="#3b4252"/>
<rect x="835.20" y="567.00" width="8.70" height="9.05" fill="#3b4252"/>
<rect x="843.60" y="567.00" width="8.70" height="9.05" fill="#3b4252"/>
<rect x="852.00" y="567.00" width="8.70" height="9.05" fill="#3b4252"/>
<rect x="860.40" y="567.00" width="8.70" height="9.05" fill="#3b4252"/>
<rect x="868.80" y="567.00" width="8.70" height="9.05" fill="#3b4252"/>
<rect x="877.20" y="567.00" width="8.70" height="9.05" fill="#3b4252"/>
<rect x="885.60" y="567.00" width="8.70" height="9.05" fill="#3b4252"/>
<rect x="894.00" y="567.00" width="8.70" height="9.05" fill="#3b4252"/>
<rect x="902.40" y="567.00" width="8.70" height="9.05" fill="#3b4252"/>
<rect x="910.80" y="567.00" width="8.70" height="9.05" fill="#3b4252"/>
<rect x="919.20" y="567.00" width="8.70" height="9.05" fill="#3b4252"/>
<rect x="927.60" y="567.00" width="4.50" height="9.05" fill="#3b4252"/>
<rect x="12.00" y="584.50" width="67.50" height="17.80" fill="#88c0d0"/>
<rect x="79.20" y="584.50" width="857.10" height="17.80" fill="#2e3440"/>
<rect x="12.00" y="584.50" width="4.50" height="17.80" fill="#2e3440"/>
<text x="20.40" y="598.15" fill="#2e3440" class="b" textLength="50.40" lengthAdjust="spacingAndGlyphs">1:main</text>
<rect x="75.00" y="584.50" width="4.50" height="17.80" fill="#2e3440"/>
<text x="87.60" y="598.15" fill="#d8dee9" textLength="529.20" lengthAdjust="spacingAndGlyphs">tile                       shell                        CPU  2%</text>
<rect x="684.00" y="599.81" width="8.70" height="2.49" fill="#d8dee9"/>
<text x="709.20" y="598.15" fill="#d8dee9" textLength="218.40" lengthAdjust="spacingAndGlyphs">MEM  3%  / 30G free  17:51</text>
</svg>
